<svg version="1.1" id="Layer_1" xmlns="http://www.w3.org/2000/svg" xmlns:xlink="http://www.w3.org/1999/xlink" x="0px" y="0px"
	 width="100%" viewBox="0 0 500 500" enable-background="new 0 0 500 500" xml:space="preserve">
<path fill="#000000" opacity="1.000000" stroke="none" 
	d="
M279.000000,501.000000 
	C186.000015,501.000000 93.500046,501.000000 1.000050,501.000000 
	C1.000033,334.333405 1.000033,167.666794 1.000017,1.000139 
	C167.666565,1.000093 334.333130,1.000093 500.999756,1.000046 
	C500.999847,167.666519 500.999847,334.333038 500.999939,500.999786 
	C427.166656,501.000000 353.333344,501.000000 279.000000,501.000000 
M301.548340,261.159149 
	C299.715179,261.159180 297.827667,261.442139 296.059662,261.102753 
	C291.846161,260.293976 290.382080,262.455353 289.138458,266.075897 
	C267.942261,327.783752 246.624496,389.449860 225.349014,451.130493 
	C224.743256,452.886627 224.307327,454.701294 223.690735,456.840729 
	C236.287552,456.840729 248.114838,456.746796 259.938568,456.909485 
	C262.750031,456.948151 263.527527,455.696503 264.272186,453.338409 
	C268.172058,440.988739 272.378845,428.735168 276.203400,416.363037 
	C277.245605,412.991486 278.631042,411.701385 282.373901,411.737244 
	C304.370026,411.948090 326.370209,411.942749 348.366455,411.737152 
	C351.892822,411.704224 353.152893,412.867432 354.147949,416.046173 
	C358.402039,429.636200 362.945374,443.135651 367.378937,456.655060 
	C380.995056,456.655060 394.255127,456.655060 407.981750,456.655060 
	C385.420166,391.297302 362.965759,326.249969 340.496338,261.159149 
	C327.512421,261.159149 315.023865,261.159149 301.548340,261.159149 
M356.869171,208.703674 
	C360.370361,219.533936 363.871582,230.364182 367.311676,241.005463 
	C381.044769,241.005463 394.173035,241.005463 407.922211,241.005463 
	C385.413269,175.789413 363.021118,110.911789 340.558563,45.830067 
	C325.338959,45.830067 310.357635,45.953182 295.381165,45.736942 
	C291.961426,45.687565 290.518463,46.689182 289.402832,49.938766 
	C268.006561,112.262672 246.474884,174.540115 224.987457,236.832764 
	C224.540878,238.127380 224.287109,239.488495 223.852600,241.169937 
	C235.245773,241.169937 246.070160,240.942032 256.877167,241.276428 
	C261.529358,241.420380 263.782074,240.293991 265.183441,235.440628 
	C268.997742,222.230774 273.555237,209.235519 277.824066,196.137283 
	C302.949890,196.137283 327.741974,196.137283 352.672821,196.137283 
	C354.002289,200.128784 355.305420,204.041092 356.869171,208.703674 
M94.341537,449.192902 
	C115.992210,460.742828 138.810883,462.023956 162.145325,456.172089 
	C182.375397,451.098724 194.288498,437.302460 198.722641,417.399963 
	C200.802872,408.062958 201.747910,398.300507 201.824951,388.719727 
	C202.153198,347.895752 201.967377,307.067566 201.955292,266.240936 
	C201.954819,264.639038 201.812531,263.037201 201.740646,261.526062 
	C188.780655,261.526062 176.233002,261.526062 163.364166,261.526062 
	C163.364166,263.870483 163.368286,265.848938 163.363571,267.827423 
	C163.261551,310.651245 163.326431,353.476898 162.861694,396.296783 
	C162.797302,402.230469 161.055038,408.594391 158.438965,413.953400 
	C153.790573,423.475739 141.663712,427.679932 128.875153,425.521759 
	C114.356598,423.071655 104.820549,414.278992 98.343315,401.576874 
	C95.987228,396.956451 94.621391,396.783936 91.330719,400.754425 
	C85.592232,407.678528 79.986969,414.716522 74.112411,421.522522 
	C72.035172,423.929077 71.993942,425.685638 73.608711,428.431580 
	C78.623558,436.959351 85.328270,443.691345 94.341537,449.192902 
M201.964233,172.491577 
	C201.964233,130.387772 201.964233,88.283974 201.964233,46.098175 
	C188.916733,46.098175 176.348801,46.098175 163.364868,46.098175 
	C163.364868,48.156708 163.364883,49.959976 163.364883,51.763245 
	C163.364792,91.417412 163.424973,131.071762 163.301315,170.725540 
	C163.282211,176.856567 162.805740,183.044693 161.867355,189.102097 
	C159.931351,201.599411 151.319748,209.246338 138.900818,210.113129 
	C120.862579,211.372131 107.029114,203.283478 98.635529,186.569351 
	C96.016342,181.353760 94.687325,181.176376 90.945496,185.702209 
	C85.217331,192.630569 79.629333,199.676956 73.797958,206.516464 
	C72.150948,208.448181 71.853806,209.821091 73.125938,212.138901 
	C78.849670,222.567444 87.172874,230.267944 97.696419,235.480606 
	C117.505646,245.292740 138.488190,246.139832 159.562317,241.492783 
	C180.179962,236.946411 193.665909,223.838470 198.409531,203.117340 
	C200.617004,193.474640 200.840744,183.377792 201.964233,172.491577 
z"/>
<path fill="#FDFDFD" opacity="1.000000" stroke="none" 
	d="
M302.041809,261.159149 
	C315.023865,261.159149 327.512421,261.159149 340.496338,261.159149 
	C362.965759,326.249969 385.420166,391.297302 407.981750,456.655060 
	C394.255127,456.655060 380.995056,456.655060 367.378937,456.655060 
	C362.945374,443.135651 358.402039,429.636200 354.147949,416.046173 
	C353.152893,412.867432 351.892822,411.704224 348.366455,411.737152 
	C326.370209,411.942749 304.370026,411.948090 282.373901,411.737244 
	C278.631042,411.701385 277.245605,412.991486 276.203400,416.363037 
	C272.378845,428.735168 268.172058,440.988739 264.272186,453.338409 
	C263.527527,455.696503 262.750031,456.948151 259.938568,456.909485 
	C248.114838,456.746796 236.287552,456.840729 223.690735,456.840729 
	C224.307327,454.701294 224.743256,452.886627 225.349014,451.130493 
	C246.624496,389.449860 267.942261,327.783752 289.138458,266.075897 
	C290.382080,262.455353 291.846161,260.293976 296.059662,261.102753 
	C297.827667,261.442139 299.715179,261.159180 302.041809,261.159149 
M294.823700,359.275482 
	C292.715698,365.707764 290.607666,372.140045 288.411316,378.841858 
	C306.416687,378.841858 323.891846,378.841858 341.678009,378.841858 
	C341.286469,377.374969 341.043335,376.251984 340.688354,375.165527 
	C333.123108,352.011139 325.574371,328.851257 317.898926,305.733429 
	C317.429016,304.318085 315.937347,303.241943 314.921082,302.007965 
	C313.968994,303.342010 312.617615,304.543884 312.125763,306.030243 
	C306.345825,323.496796 300.694794,341.005951 294.823700,359.275482 
z"/>
<path fill="#FEFEFE" opacity="1.000000" stroke="none" 
	d="
M356.738831,208.328537 
	C355.305420,204.041092 354.002289,200.128784 352.672821,196.137283 
	C327.741974,196.137283 302.949890,196.137283 277.824066,196.137283 
	C273.555237,209.235519 268.997742,222.230774 265.183441,235.440628 
	C263.782074,240.293991 261.529358,241.420380 256.877167,241.276428 
	C246.070160,240.942032 235.245773,241.169937 223.852600,241.169937 
	C224.287109,239.488495 224.540878,238.127380 224.987457,236.832764 
	C246.474884,174.540115 268.006561,112.262672 289.402832,49.938766 
	C290.518463,46.689182 291.961426,45.687565 295.381165,45.736942 
	C310.357635,45.953182 325.338959,45.830067 340.558563,45.830067 
	C363.021118,110.911789 385.413269,175.789413 407.922211,241.005463 
	C394.173035,241.005463 381.044769,241.005463 367.311676,241.005463 
	C363.871582,230.364182 360.370361,219.533936 356.738831,208.328537 
M311.500000,163.839066 
	C321.485779,163.839066 331.471558,163.839066 341.770660,163.839066 
	C341.320953,162.166153 341.005066,160.729950 340.550446,159.339111 
	C333.075775,136.471252 325.616974,113.598022 318.023468,90.769623 
	C317.494415,89.179070 315.936371,87.930794 314.856812,86.523354 
	C313.911835,87.898170 312.580750,89.145905 312.080139,90.666969 
	C305.286102,111.309883 298.606079,131.990341 291.901062,152.662537 
	C290.740692,156.239990 289.595001,159.822220 288.301941,163.839066 
	C296.205719,163.839066 303.352905,163.839066 311.500000,163.839066 
z"/>
<path fill="#FCFCFC" opacity="1.000000" stroke="none" 
	d="
M94.016739,449.026184 
	C85.328270,443.691345 78.623558,436.959351 73.608711,428.431580 
	C71.993942,425.685638 72.035172,423.929077 74.112411,421.522522 
	C79.986969,414.716522 85.592232,407.678528 91.330719,400.754425 
	C94.621391,396.783936 95.987228,396.956451 98.343315,401.576874 
	C104.820549,414.278992 114.356598,423.071655 128.875153,425.521759 
	C141.663712,427.679932 153.790573,423.475739 158.438965,413.953400 
	C161.055038,408.594391 162.797302,402.230469 162.861694,396.296783 
	C163.326431,353.476898 163.261551,310.651245 163.363571,267.827423 
	C163.368286,265.848938 163.364166,263.870483 163.364166,261.526062 
	C176.233002,261.526062 188.780655,261.526062 201.740646,261.526062 
	C201.812531,263.037201 201.954819,264.639038 201.955292,266.240936 
	C201.967377,307.067566 202.153198,347.895752 201.824951,388.719727 
	C201.747910,398.300507 200.802872,408.062958 198.722641,417.399963 
	C194.288498,437.302460 182.375397,451.098724 162.145325,456.172089 
	C138.810883,462.023956 115.992210,460.742828 94.016739,449.026184 
z"/>
<path fill="#FCFCFC" opacity="1.000000" stroke="none" 
	d="
M201.963959,172.989197 
	C200.840744,183.377792 200.617004,193.474640 198.409531,203.117340 
	C193.665909,223.838470 180.179962,236.946411 159.562317,241.492783 
	C138.488190,246.139832 117.505646,245.292740 97.696419,235.480606 
	C87.172874,230.267944 78.849670,222.567444 73.125938,212.138901 
	C71.853806,209.821091 72.150948,208.448181 73.797958,206.516464 
	C79.629333,199.676956 85.217331,192.630569 90.945496,185.702209 
	C94.687325,181.176376 96.016342,181.353760 98.635529,186.569351 
	C107.029114,203.283478 120.862579,211.372131 138.900818,210.113129 
	C151.319748,209.246338 159.931351,201.599411 161.867355,189.102097 
	C162.805740,183.044693 163.282211,176.856567 163.301315,170.725540 
	C163.424973,131.071762 163.364792,91.417412 163.364883,51.763245 
	C163.364883,49.959976 163.364868,48.156708 163.364868,46.098175 
	C176.348801,46.098175 188.916733,46.098175 201.964233,46.098175 
	C201.964233,88.283974 201.964233,130.387772 201.963959,172.989197 
z"/>
<path fill="#020202" opacity="1.000000" stroke="none" 
	d="
M294.916748,358.889709 
	C300.694794,341.005951 306.345825,323.496796 312.125763,306.030243 
	C312.617615,304.543884 313.968994,303.342010 314.921082,302.007965 
	C315.937347,303.241943 317.429016,304.318085 317.898926,305.733429 
	C325.574371,328.851257 333.123108,352.011139 340.688354,375.165527 
	C341.043335,376.251984 341.286469,377.374969 341.678009,378.841858 
	C323.891846,378.841858 306.416687,378.841858 288.411316,378.841858 
	C290.607666,372.140045 292.715698,365.707764 294.916748,358.889709 
z"/>
<path fill="#040404" opacity="1.000000" stroke="none" 
	d="
M311.000061,163.839066 
	C303.352905,163.839066 296.205719,163.839066 288.301941,163.839066 
	C289.595001,159.822220 290.740692,156.239990 291.901062,152.662537 
	C298.606079,131.990341 305.286102,111.309883 312.080139,90.666969 
	C312.580750,89.145905 313.911835,87.898170 314.856812,86.523354 
	C315.936371,87.930794 317.494415,89.179070 318.023468,90.769623 
	C325.616974,113.598022 333.075775,136.471252 340.550446,159.339111 
	C341.005066,160.729950 341.320953,162.166153 341.770660,163.839066 
	C331.471558,163.839066 321.485779,163.839066 311.000061,163.839066 
z"/>
</svg>